<svg data-v-0dd9719b="" version="1.0" xmlns="http://www.w3.org/2000/svg" xmlns:xlink="http://www.w3.org/1999/xlink" width="100%" height="100%" viewBox="0 0 340.000000 250.000000" preserveAspectRatio="xMidYMid meet" color-interpolation-filters="sRGB" style="margin: auto;"> <rect data-v-0dd9719b="" x="0" y="0" width="100%" height="100%" fill="#fff" fill-opacity="1" class="background"></rect> <rect data-v-0dd9719b="" x="0" y="0" width="100%" height="100%" fill="url(#watermark)" fill-opacity="1" class="watermarklayer"></rect> <g data-v-0dd9719b="" fill="#333" class="icon-text-wrapper icon-svg-group iconsvg" transform="translate(60.31999969482422,88.29961013793945)"><g class="iconsvg-imagesvg" transform="translate(0,0)"><g><rect fill="#333" fill-opacity="0" stroke-width="2" x="0" y="0" width="60" height="73.40078049496593" class="image-rect"></rect> <svg x="0" y="0" width="60" height="73.40078049496593" filtersec="colorsb2091066297" class="image-svg-svg primary" style="overflow: visible;"><svg xmlns="http://www.w3.org/2000/svg" viewBox="-0.009594814851880074 -0.010002574883401394 138.79959106445312 169.7998809814453"><path d="M68.38 30.99A69.37 69.37 0 0 0 9.07 66.05l16 45.62 13.58-1.61a29.47 29.47 0 0 1 25.31-44.55c6.5 0 12.14 4.16 18.31 2.12 17.65-5.87 15.77-34.92-14-36.56l.08-.08z" fill="#a0d9d4" fill-rule="evenodd"></path><path d="M60.12 31.61a69.27 69.27 0 0 0-45.75 26.5l12.71 44.57 8.42 7.77 3.19-.38c-.49-.83-1-1.68-1.36-2.56a29.4 29.4 0 0 1-1.75-4.73v-.08l-.05-.2-.06-.21-.05-.22v-.23c0-.16-.08-.32-.11-.48V97.96 94.99c-5-26.05 7.51-55.73 25.59-63.37z" fill="#6fc9f1" fill-rule="evenodd"></path><path d="M27.06 45.4a69.44 69.44 0 0 0-20.32 84.85l16.89 10.11 50.89-3.74.21-13.64c-10 3.62-23.31.65-31-6.57-10.58-9.16-19.53-34.36-16.71-71z" fill="#4ec6e2" fill-rule="evenodd"></path><path d="M.11 104.37a69.4 69.4 0 0 0 138.68-4v-1.26a.06.06 0 0 0-.06 0c-.91-23.09-34.58-18.36-43-2.93a5.17 5.17 0 0 0-.38.74c-1.63 4.64-2.7 10-5.66 13.95-5.55 7.41-12.34 11.76-19.24 13.69-31.43 8.77-51-1.37-70.31-20.23z" fill="#35b5d1" fill-rule="evenodd"></path><path d="M1.33 86.82a69.4 69.4 0 0 0 128.55 47.59C92.77 163.16 14.8 164.3 1.33 86.82z" fill="#006bb1" fill-rule="evenodd"></path><path d="M108.52 54.73a13.16 13.16 0 1 0 13.15 13.15 13.16 13.16 0 0 0-13.15-13.15z" fill="#a0d9d4" fill-rule="evenodd"></path><path d="M114.45-.01a19.4 19.4 0 1 0 19.39 19.4 19.4 19.4 0 0 0-19.39-19.4z" fill="#6fc9f1" fill-rule="evenodd"></path></svg></svg> <!----></g></g> <g transform="translate(67,15.020389556884766)"><g data-gra="path-name" fill-rule="" class="tp-name iconsvg-namesvg"><g transform="scale(1)"><g><path d="M10.99 0L0.2 0 18.14-43.36 28.73-43.36 46.67 0 35.88 0 31.66-10.01 15.21-10.01 10.99 0ZM29.64-17.75L23.46-32.89 17.29-17.75 29.64-17.75ZM47.77-43.36L57.33-43.36 67.08-10.72 76.18-43.36 86.45-43.36 95.55-10.72 105.3-43.36 114.79-43.36 100.81 0 90.28 0 81.31-31.27 72.34 0 61.81 0 47.77-43.36ZM137.02-43.36L152.56-43.36 152.56-35.62 140.53-35.62Q135.85-35.62 133.7-34.97 131.56-34.32 130.13-32.44L130.13-32.44Q129.16-31.14 128.8-29.84 128.44-28.54 128.18-25.41L128.18-25.41 152.56-25.41 152.56-17.68 128.18-17.68Q128.7-12.09 131.5-9.91 134.29-7.74 140.98-7.74L140.98-7.74 152.56-7.74 152.56 0 140.53 0Q135.66 0 131.95-0.58L131.95-0.58Q126.1-1.56 122.65-5.72L122.65-5.72Q117.71-11.7 117.71-21.91L117.71-21.91Q117.71-33.22 124.67-39.52L124.67-39.52Q127.07-41.66 129.77-42.51 132.47-43.36 137.02-43.36L137.02-43.36Z" transform="translate(-0.20000000298023224, 43.36000061035156)"></path></g> <!----> <!----> <!----> <!----> <!----> <!----> <!----></g></g> <!----></g></g><defs v-gra="od"></defs></svg>